<svg xmlns="http://www.w3.org/2000/svg" xmlns:xlink="http://www.w3.org/1999/xlink" viewBox="0 0 1400 944">
  <g id="Band" style="isolation: isolate">
    <path d="M71,113v-4c2-.93,17.64-18.18,20-21l19,3c4,5.21,20.57,18.53,17,27-1.61,4.85-5.61,7-10,9,.06-11.1-1.8-18.78-2-28-3-1.1-3.33-1.85-8-2-5.73-8.62-25.94,3.1-28,6-10.69,15.06-12,36.05-12,62v24h2v14h2v6h2v8h2c1.78,3.24,2.16,8.91,4,12,5.91,9.93,12.73,21.74,18,32,2.09,4.08-.35,8.11,2,12,0,0,5.58,5.19,6,6v6h2v4h2c1.72,3.29.32,6.25,2,9,3.18,5.2,8.25,9.05,10,16-1.14,1.86-.83,7.16-2,9-1.24-13.44-11.47-18.69-16-28-2.66-5.46-1.06-10.81-4-16H97v-4c-.44-.65-3.56-1.35-4-2-1.68-2.48-2.38-9.27-4-12-5.91-9.95-12.69-21.75-18-32v-6H69v-6H67v-8c-7.13-15.15-10-25.7-10-49V141c3.11-6.84,6-13.47,6-24C66.66,115.39,66,113.7,71,113Z" fill="none" fill-rule="evenodd"/>
    <path d="M115,359h4v1c-3.86,3.57-1.43,8.77-4,14-1,2-5.12,4.79-6,7-2.49,6.25,1.15,24.6-2,33-.21.55-2.72,3-3,4v24c-5.32,21.22-13.67,61.91-26,75-8.16.84-18.49.59-20-8,7.12-6.27,1.56-5.94,5-12,.25-.45,3.75-1.55,4-2v-8h2v-4h2v-4h2c2.16-4.21-.17-7.8,2-12h2v-4h2V453c.26-.46,3.73-1.54,4-2,2.31-4-.12-7.9,2-12h2v-4h2V395h2c1.82-3.39.07-6.27,2-10h2v-4h2v-6C99.9,370.31,112.12,363.76,115,359Z" fill="none" fill-rule="evenodd"/>
  </g>
  <g id="Laces" style="isolation: isolate">
    <path d="M649,354v3c8.19,0,10.31,1.82,18,2,1,2.8,1.52,2.1,2,6h4c5.77,12.79,9.79,3.41,18,8,.54.3,1.45,3.63,2,4h4c.6.41,1.41,3.64,2,4h6c2.13,1.41,2,6.46,4,8h4c6.27,4.49,18.82,16.91,20,26,10,1,17.7,8.08,21,16,6.66.57,20.43.71,25-4,1.28-.24,6.19,2,10,2,4.24,9.6,21.26,18.34,24,29-4.35,1.13-5.65,2.81-6,8,9.64,6.52,9.4,20.22,14,32,2.59,6.63,6.85,7.45,7,18h-2c-5.92-4-17-4-18-13h-3c-1.74-18.42-16.5-31.13-13-49-7.43.13-13.18-2.52-15-8-.8-1.18-.77-1.68-1-4-7,.53-7.76,3.48-15,4-2.56-4.22-12.14-14-17-12-2.54,1.47-2,2.12-2,6-2.3,5.05,4.44,15.16-2,19-1.18.8-1.68.77-4,1-3.43-3.41-8.22-4.88-11-9-4.47-6.32.46-27.84-4-36-1.35-2.48-18.91-22.67-21-24-3.8-2.42-9-1.67-13-4l-13-15c-14.59-.21-24.17,4.83-34,8H630a97.3,97.3,0,0,0-11,5c-9.52,4.81-14.58,12.26-29,13-3.68-3.75-5.93-4.15-6-12,6.71-2.41,7.91-7.38,14-11,5.82-3.46,18.94-6.5,26-8v-1l-4,1v-2c5.68-.21,6.12-1,6-7-17.89-.36-28.88-17.13-42-25-3.42-2.05-8.91-6.9-12-6-5.26,1.68-31,25.62-32,31-2.33-.2-2.83-.19-4-1-4.33-1.16-6.58-2.63-7-8,4.47-3.52,4.92-7.89,8-13,3.69-6.12,19.28-17.87,27-20v-1c-7.52-.63-10.8-2.48-15-6,.63-1.75.19-1,1-2,1.32-3.36,1.54-2.9,6-3,3.36,2.11,18.9-2.6,26-3,3.55,7.38,15.3,10.3,27,10,2.43,6.17,5.89,6.9,6,16-2.76,1.61-2.9,13.46-2,15,2.54,3.12,5.73,1.51,9,4,1.6,1.22,2.09,4.93,4,6C631.81,355.26,639.53,354.11,649,354Z" fill="none" fill-rule="evenodd"/>
    <path d="M1002,579c-3.69,0-13.35,1.21-16,0s-4.63-5.85-8-7h-8c-5.68-1.51-12.74-4.67-19-6-12-2.56-19.81,7.48-33,5-5.79-1.09-15.81-9-17-15l3-1c3.11-1.87,20.4-1,30-1h36c4.06,1.7,7.39,7.18,12,9C990.82,566.49,1000.87,568.2,1002,579Z" fill="none" fill-rule="evenodd"/>
    <path d="M888,536c.49-19.72-6.54-28.54-16-38-9,2.05-12.73,9.18-20,12-2.88-5.26-5.93-10.41-9-15,2.17-1.35,11.89-6.51,13-8s1.49-2.87,2-5c-4.17-.21-5.15-.65-7-3h10c3.5,5.63,18.81,4.26,28,4,1.81,3.73,5.9,4.84,8,8,4.07,6.11,7.55,28.86,6,37-3.57,2.15-8.17,5-11,8Z" fill="none" fill-rule="evenodd"/>
  </g>
  <g id="Tongue" style="isolation: isolate">
    <path d="M472,2c1,5.73,5.95,10.21,8,14v8h2v6h2V40h2c2.3,5.13-.3,9.22,2,14h2V64h2v8h2v4h2v4h2v4h2v6c4.68,8.93,11.25,19.11,16,28v5c.42.89,3.64,2.34,4,3v8h2v4h2c1.92,3.75.14,6.62,2,10h2v8c10.26,21.72,17.49,48.5,28,70,2.4,4.92-.39,9.4,2,14,3,5.82,7,13.9,10,20,2.07,4.26-.24,7.86,2,12,4.55,8.4,10.87,16.89,12,29-12,.38-21.5,3.72-30,6-3.68,1-9.68-5.27-17-4-.19-4.6-.5-5.66-4-7a54.24,54.24,0,0,0-15,4c-11.07,4.75-18.63,12.95-22,17-13.8,16.59-26.83,35.85-43,51a134.39,134.39,0,0,1-36,24c-1.18.8-1.68.77-4,1,0,2.72,0,4.6-1,6-2.61,8.12-8.53,6.85-15,11,2.15,1.67,3.07,2.82,2,5-2.32,8.38-26.4,27.87-34,32-2.09,1.14-3.14-.89-6,1-5.74,3.79-8.8,10.5-17,12-1.07-.75-.95-.6-3-1v2c3.25.83,1.53-.49,3,2-8.42.25-23.06,7.64-28,12-5.34,4.71-7.43,11.23-16,13-5.88-5.82-8.84.39-15,0-3.56-.23-10.81-4.62-18-3-6.6,1.49-11.08,6.86-16,9l-14-1c-4.95-6.74-11.31-13.44-21-13l-5-7c-1.57-4.66,1.7-7.56-2-10-6.05,3.65-11.95-4.3-16-6l-4,1c-3.53-1.15-18.2-15.76-20-19-1.91-3.43,2.4-4.91,0-8-1-1.26-4.11-1.48-5-3a155.39,155.39,0,0,1-7-15c-10.12,1-27.32-11.93-36-17-6.6-3.86-12.55-.68-13-11,.9-1.88-1.3-5.92,0-10,1.13-3.55,5.7-6.94,7-10,.33-3.33.67-6.67,1-10,1.42-2.69,7.44-5.41,10-11,4.29-9.35-8.52-23.66-6-37,2.81-.45,2.22-4.25,2-10,2.9-4.48,1.86-10.72,3-17,.76-4.2-1.64-9.12-3-13V254c-5-11.34-7-26.88-12-38v-8c-3.82-8.51-6.32-32.05-2-42,2.88-6.64-1.38-25,2-32h2v-4h2v-4h2v-4c2.3-3.59,8.37-5.08,11-9,14.18,5.79,21.21,5.25,35-1h8c7.54-3.73,9.53-5.83,22-6v4l12-8c5-1.73,11.05-4.15,16-6l12-2h2l28-8c2.51-1.57,3.91-4.58,6-6h4V78h6V76h8V74c4.44-1.83,9.51,1.89,15,2,1.21-2.08,2.77-4.82,5-6l16-5h1c1.69,1.14,4.9,1.07,8,1,2.25-3.69,2.37-3.7,3-8h2c5.5,6.06,11.93-1.56,14-8,10.41-1.17,20.51-8.13,28-12,4.19-2.17,7.81.18,12-2V34h4V32h7c2-.87,4.95-5,7-6h10V24h4c3.53-2.07,8.38-6.14,12-8h6C446.42,10.54,456.93,2.48,472,2Z" fill="none" fill-rule="evenodd"/>
  </g>
  <g id="Counter" style="isolation: isolate">
    <path d="M506,388c-1.57,1.8-2,1.28-3,4-.8,1.18-.77,1.68-1,4,2.73,1.71,2.5,2.54,7,3v1h1v-1c1.88-2,2-3.84,2-8C509.8,389.74,508.94,388.82,506,388Z" fill="none" fill-rule="evenodd"/>
    <path d="M584,382c-.4,8.22.06,13,6,15,1.69,1.14,4.9,1.07,8,1,4.12-4,10.73-10.7,16-13l10-1c4.31-1.6,3.7-5.21,10-6,2.77,4.13,6.29,5.62,7,12,4.75,7.35-5.43,24.11-8,29-2.28,4.35-1.6,8.34-4,13-3.07,6-9.3,12.42-13,18-2.54,3.83-2.6,7.88-5,12-6.13,10.54-14.23,21.62-21,32-3.3,5.06-3.88,10.62-7,16s-8.92,11.37-12,17c-4,7.32-5.7,13.8-10,21-2,3.37-6.8,6.64-9,10-3.33,5.07-3.92,10.72-7,16-18.44,31.56-43.25,54.89-55,94-4.08,13.58-8.09,32-4,48,2.63,10.26-.92,18.31,2,28,2.41,8,10.21,14,13,22-1.5,1.55-.78,1.84-3,3-4.47,2.53-10.6-2.12-14-4-6.8-3.75-15.34-8.26-19-15-4.6-8.49-2.3-10.54-9-18-3.08.89-3,1.58-7,2-7.19-11.61-25.81-11.36-39-17-26.27-11.23-62-15.38-94-25-11.44-3.44-29.6-9.83-44-4-7.71,3.13-13.35,13.35-19,19-14.65,14.66-34.54,30.82-63,31,.78-11.15,6.95-17.23,11-25,12.22-23.44,27.06-45.32,46-62,5.1-4.49,13-5.52,18-10,2.39-2.13,3.72-5.72,6-8,4.34-4.34,9.64-7.68,14-12,.93-.92,1-3.15,2-4,3.48-3.07,9.16-3.33,12-7,2.22-2.87,3.39-6.58,6-9,5.63-5.23,14.17-6.86,20-12,6-5.33,10.4-13.23,17-18,7.87-5.7,17.79-9.49,25-16,5.61-5.07,9-13.43,15-18,10.6-8,21.61-13.7,29-25,4.8-7.34,8.48-4.25,14-9,4.16-3.58,6.55-9.69,11-13,11.46-8.55,20.57-16.45,29-28,7.21-9.88,19.2-10.91,7-24-20.15-.27-32.53,18.68-43,29-3.44,3.39-8.36,4.75-12,8-7.3,6.5-12.79,15.39-20,22-2.88,2.64-7.07,3.39-10,6-12.19,10.87-23.91,22.94-36,34-6.5,6-14.65,8.77-22,14-5.63,4-10.95,10.49-17,14-18.36,10.65-38.43,19.25-58,28-10.07,4.5-22.68,6-32,10-7.07,3-14,.94-22,3-3.34.86-8.66,3.15-12,4H176c-18.22,4.53-39.48,5.12-52,4-10.6-1-18.19,3-30,0H66c-7.6-1.91-21-3.21-28-5-5.9-10.38-5.13-22.26-5-39,4.47-4.46,1.45-11.09,4-18,1.41-3.81,4.54-10.91,6-15,4.58-12.84-1.9-27.56,15-28v3c20,12.24,60.33,9.4,86,16l40-1c15.8,3.39,41.87-4,58-10l16,1c3.78-1.33,6.29-6.46,10-8,11.44-4.77,20.6-7.34,31-13,3.86-2.1,7.21-7.12,11-9l6-1,4-5c5.95-3.9,15.91-4.15,21-9,3-2.88,4.62-7.46,8-10,3.16-2.38,7-3.4,10-6,1.8-1.54,3.07-4.59,5-6,4.73-3.45,10.89-5.89,15-10,2.89-2.89,3.57-7.61,7-10,5.58-3.9,12.28-6.43,16-12,1.32-2,2.18-5.67,4-7h3c3.67-1.95,11.31-5.79,14-9,2.32-2.77,2-7,4-10,3.27-4.88,9.85-7.87,14-12,7.85-7.83,13.93-16.28,21-25,3.43-4.23,9.37-6.93,13-11,11.47-12.86,27.44-40,45-45,2-.57,13.87,1,18,1,4.8,6.79,21.06,10.29,22,15-9.35,8.11-19.34,15.15-26,26-4.24,6.9-2.75,15.28,6,16,4.82-5,10.76-8.38,16-13,1.87-1.65,1.53-4.86,3-7,3.13-4.57,9.15-8,13-12,12,3.54,16,11.44,26,18l8,3,6,8c5.54,3.86,11.08,2.24,12,11-7.89,4.06-17.13,5.4-26,9C592.78,377.12,591.24,381.2,584,382Z" fill="none" fill-rule="evenodd"/>
    <path d="M558,424c-1.57,1.8-2,1.28-3,4-3.63,5.58,7.06,13.15,11,11,3.26-1,3.92-1.78,5-5,2.87-4.72-2.5-7.53-5-10Z" fill="none" fill-rule="evenodd"/>
  </g>
  <g id="Clippers" style="isolation: isolate">
    <path d="M818,482c12.46.81,23.73,13,31,20q.5,7.5,1,15c-6.86,5-10.45,13.54-15,21-2.32,3.81-7.38,7.15-10,11l1,3c-.26.42-4.52,3.27-5,4-4.86,7.33-8.28,17.89-19,19-5.57,3.2-13.09-4-17-6-6.53-3.41-12.47-4.58-19-8-6-3.12-9.8-8-18-9,.21-15.16,28.09-42.25,36-54,4.28-6.36,5.28-12,14-14,3.57,6,5.25,12.41,8,20,8.87,3.26,13.26,9.53,22,12v-8A39.91,39.91,0,0,1,818,482Z" fill="none" fill-rule="evenodd"/>
    <path d="M724,422c-.47,13.74-1.71,29.26,8,33,1.42,1,3.27,1,6,1,1.1-1.93,3.31-3.74,4-6,2.53-8.37-4.53-15.69,3-18,6,6.95,15,12.14,22,18,1.25,15.64-6.31,20.15-14,29-2.36,2.71-1.36,5.22-3,9-1.51,3.48-6.09,5.05-8,8-.33,2-.67,4-1,6-2.27,4.16-8.9,5.56-12,9-6,6.7-6.36,15.66-19,16-4-4.82-10.86-6.32-16-10-5.55-4-10.45-10.06-16-14-5.17-3.67-13.58-4.38-14-13,2.94-3.15,4.16-7.73,7-11a331.27,331.27,0,0,0,24-31c6.65-9.67,16.86-17.65,25-26Z" fill="none" fill-rule="evenodd"/>
    <path d="M848,608c.73-9.26,8.59-16.83,13-23,10.94-15.3,22.35-50.53,41-56,1.9.93,1.17.38,4,0,6.24,8.65,20.16,12.21,24,23-11.07,0-15.64,2.63-25,3-1.12,2.09-1.43,1.83-2,5a57.31,57.31,0,0,1,14,12c11.35-.66,22.1-9.07,35-6,5.7,1.36,12.62,4.56,18,6h8c2.48.9,4.06,5,6,6,0,0,14.14,2,18,2a6.16,6.16,0,0,1,2-2,18,18,0,0,0-2-4c-8.54-7.22-26-8.6-30-20h1c1.12-2.87.17-1.84,3-3,6.83-4.46,19.84,1.06,25,3s14.21,6.53,17,11c2.56,4.1,4.08,8.52,8,11,8.08,5.1,21.32,11,23,22-3,2.61-2.63,5.42-7,7-5.07,3.21-15.37-1-23-1-12.44,0-33.21-.53-43-4-2.1-.74-4.2-3.91-6-5-6.59-4-14.44-4.18-20-9-3.65-3.16-1.18-5.08-8-6-1.74,4.21-5.7,4.78-8,8-6.34,8.91-9.15,18.49-15,28-1.38,2.25-4.73,4.7-6,7-4,7.18-3.35,17.4-14,18-4.52-6.21-12.13-8-19-12-8-4.64-21.64-14.4-28-21Z" fill="none" fill-rule="evenodd"/>
  </g>
  <g id="Stripes" style="isolation: isolate">
    <path d="M710,528c2.54,1.46,1.13-.22,2,3h-2Z" fill="none" fill-rule="evenodd"/>
    <path d="M668,499c12.77,2.41,19.94,13.51,29,20,5.22,3.74,10.52,2.11,11,11,.88,1.29.89,2.47,1,5-3.88,3.06-11,10.42-13,15-1.58,3.7-.57,6.47-3,9-2.6,2.7-7.35,3.34-10,6-3.69,3.7-4,9.43-7,14-1,1.56-3.82,2.61-5,4-4.94,5.82-7.65,12.69-12,19-2.46,3.56-7.18,5.8-10,9-4.17,4.74-5.38,11.78-9,17-1.57,2.27-5.27,3-7,5s-.67,7.57-1,8c-1.21,1.56-7.61,3.49-10,7-29.58,43.5-59,87.73-88,132-3.34-.63-7.21-2.28-10-3l-10,1c-12.65-3.77-26.61-18-29-32,7.71-6.43,10.65-17,16-26,2-3.37,6.78-6.66,9-10,2.54-3.82,2.57-7.92,5-12,2.26-3.8,7.4-7.38,10-11,2.92-4.07,3.3-8.46,6-13,3.92-6.58,11-13.18,16-19,3.2-3.75,3.34-8.56,6-13,1.67-2.78,5.89-4.59,8-7,5.16-5.89,6.44-14.55,11-21,1.56-2.21,5.35-3.79,7-6,3.89-5.2,6.2-10.54,10-16l10-9c16.89-27.89,36.57-51.75,56-77C658.05,502,664.66,502.55,668,499Z" fill="none" fill-rule="evenodd"/>
    <path d="M656,804c-20,0-40.46-7.45-64-8q1-6,2-12c6.4-4.4,13.41-14.06,17-21,2.72-5.25,2.47-9.93,6-14,7.38-8.52,13.21-17.6,20-27,2-2.79,6.24-5,8-8q1-6,2-12c4.31-7.43,13.18-14.29,17-22,.33-2.67.67-5.33,1-8,1.74-3.27,7.72-5.83,10-9,6.64-9.23,10.11-19.11,16-29,4.43-7.44,12.15-14.78,17-22,4.34-6.47,6.58-13.53,11-20,5.17-7.57,13.64-14.82,18-23,3.89-7.29,5.15-15.87,15-17,8.78,7.81,24.59,13.56,35,19,6.4,3.34,11.73,1.12,12,11-4.93,4.31-4.24,10.23-8,16-2,3-7.31,4.6-9,8-2.27,4.58-.42,10.09-3,14-2.25,3.4-9.48,2.64-12,6-2.26,3-2,6.6-4,10-4.3,7.23-12,14.06-16,22q-1,5-2,10l-8,6c-1.45,2-.66,3.71-2,6-3.3,5.62-9.39,10.61-13,16-3.12,4.66-4,9-7,14-2.24,3.71-7.74,6.23-10,10-2.5,4.17-1.65,9.88-4,14-4.29,7.52-12.06,15.08-16,23q-1,5.5-2,11c-2.66,5.2-10.18,8.7-14,13-5.15,5.79-7.45,13.67-13,19Z" fill="none" fill-rule="evenodd"/>
    <path d="M846,608c12.13.17,16.58,9,24,14,9.36,6.3,18.86,9.57,26,18-3.52,10.79-10.21,16.36-16,26-1.44,2.39.43,6.06-1,9-2,4.19-9.34,6.88-12,11-3.48,5.38-3.77,10-7,16l-9,8c-11.48,17.6-21,33.9-32,52-2.77,4.58-8.82,8.59-12,13-6.78,9.41-17.74,33.12-26,39-9.52,8-32.51,2.45-45,2-10.49-.38-21.09,2.15-24-6,12.63-12.63,20.79-32.71,31-48,2.53-3.78,7.34-7.29,10-11,13.27-18.51,24.12-37.22,36-57l4-3c2.1-3,2-5.71,4-9,5-8.22,13.66-16,19-24,5.84-8.71,9.13-17.4,15-26,3.11-4.56,9.58-10,12-15C845,613,844,610.86,846,608Z" fill="none" fill-rule="evenodd"/>
  </g>
  <g id="Uppers" style="isolation: isolate">
    <path d="M462,438c3.47-.13,8-.33,10,1,3.26,1,3.92,1.78,5,5,.8,1.18.77,1.68,1,4-11.16,10.78-19.94,24.11-31,35-4.4,4.34-12.7,6.75-16,12-2.83,4.49-4.28,8.59-8,12-4.7,4.32-10.41,6.51-16,10-7.74,4.83-13.45,14.8-21,20-16,11-32.38,21.43-47,34-3.79,3.26-6.78,9.38-11,12-3.86,2.4-7.12,2.84-10,6s-4.59,7.49-8,10c-3.1,2.29-14.07,12.47-16,13-5.8,1.6-8.6-4.75-12-6-6-2.21-11.87-.11-17-3l-6-7c-4.37-2.68-5.14.55-6-6,1.57-.92,3.38-3.56,5-4,3.65-1,9,1,14-1a243.53,243.53,0,0,0,40-21c6.26-4.15,11.85-10.79,18-15,9.61-6.58,20.48-10.41,29-18,6.16-5.49,10.25-15.37,17-20,7.33-5,14.52-8.22,21-14,7.29-6.5,12.79-15.39,20-22,2.88-2.64,7.07-3.39,10-6,1.69-1.5,2.39-4.39,4-6,6.24-6.24,13.49-12.1,20-18C454.19,442.1,458.89,441,462,438Z" fill="none" fill-rule="evenodd"/>
    <path d="M700,398c2.33.2,2.83.19,4,1,6.18,2.13,9.66,8.85,14,13q-.5,6-1,12c-10.12,7-17,19.73-24,30-7.74,11.3-19.58,20.46-27,32-1.68,2.61-.64,4.73-2,8s-5.35,6.11-7,9v3l-9,8c-2.15,3.07-2.57,6.32-5,9-.83.92-3.19,1.08-4,2-2.31,2.63-2.08,5.83-4,9-1.17,1.93-4.53,3.29-6,5-5.07,5.93-7.81,12.1-12,19-2.19,3.61-7.24,5.88-10,9-4.29,4.84-6.24,11.77-10,17-5.13,7.14-10.6,14.6-16,22-2.19,3-6.89,5-9,8-4.11,5.86-5.16,12-9,18-1.37,2.14-4.39,3.16-6,5-3.23,3.69-3.36,8.57-6,13-1.15,1.93-4.54,3.29-6,5-6.44,7.53-10.52,16.71-17,24-10.28-1.75-34.07-9.15-35-19-2.46-5.16,5.7-14.65,8-19,10.72-20.3,23.09-38.06,36-56,6.5-9,9.62-19.48,16-29,9.85-14.71,21.43-31.26,30-47,2.08-3.82,1.78-7.28,4-11,1.77-3,6.24-5.8,8-9,2-3.69,1.8-7.52,4-11,3.77-6,10.2-12.05,14-18,3.69-5.78,4.41-12.06,8-18l7-6c3-5.63,2.63-10,5-16,1.34-3.39,6-6.69,7-10,1.44-4.87-4.15-23.3-3-30,10.7-1.24,21.5-4.76,35-5,4.91,6.68,14.92,7.41,22,12,2.49,1.62,3.88,4.95,6,7Z" fill="none" fill-rule="evenodd"/>
    <path d="M592,698c.12-6.71,1.74-9.3,2-16h4c5.51-8.75,13-16.72,19-25,12.47-17.36,23.44-34.74,36-52,3.76-5.17,12-9.39,15-15,.33-2,.67-4,1-6,3.6-6.12,9.92-11.33,14-17,2.41-3.34,3.35-7,6-10,7.58-8.69,18.2-14.62,25-24,2.64-3.64,2-6.15,4-11,1.09-2.63,9.62-14.72,12-18,5.21-7.16,13.17-10.44,20-16,2.74-2.23,1.23-4.47,3-8,2.51-5,9-9.16,12-14,3.86-6.31.35-14.27,2-18,1.28-4.23,3.73-6.58,9-7-1.78,8.81,12,23.5,18,29-.42,5.12-1,9.22,0,14-7.37,5.9-11.43,16.25-17,24-8.23,11.45-19.35,22.1-27,34-2.25,3.5-.9,7.9-3,12-1.46,2.84-6.23,5.2-8,8-1.6,2.53-.44,5-2,8-2.65,5-10.2,12.53-14,17-5.2,6.13-7.52,14.26-12,21-9.21,13.85-21.13,27.94-30,42-1.6,2.53-.44,5-2,8s-6.29,5.9-8,9c-5.63,10.22-10.82,19.62-17,29-3.83,5.81-4.88,13.39-14,14C633,703.44,606,699.05,592,698Z" fill="none" fill-rule="evenodd"/>
    <path d="M328,464l10,2c4.47-.86,6.82-4.26,12-4v4c-.8,1-.35.27-1,2l-7,4-9,1c-6.24,3.16-10.88,10.46-17,14-1.89,1.09-5.91-.39-8,1s-5.22,7.36-8,9c-3.76,2.21-7.12,2-11,4s-8.95,6.17-13,8l-8,1c-2.9,1.09-6.4,4.26-10,5l-10-1c-2.2.65-4.31,4.25-6,5l-12-1c-3.45.86-6.77,4.89-10,6-4.49,1.55-9.55-1-12,0v2c-5.87,3.15-10.78,2.11-18,4-2.88.75-8.85,3.73-14,2-8.92-3-5.87-10.1-10-18-8.21-15.7-20.64-40.15-35-53-5.3-4.74-26.21-10.32-29-15,4.5-6.54-.35-18.76,2-28,.3-1.17,2.79-4.4,3-5,1.65-4.67.27-13.16,1-17h8c3.54,3.61,9.17,9,14,11,2.28.92,9,1,9,1,1.68,1.85.72,4.74,3,6,5.54,3.06,13.67,2.68,16,6,8,4.28,11.7,25.82,20,31l10,2c2.62,1.91,3.18,7,6,9,4.85,3.41,9.51,3.91,15,7,4.86,2.73,8.21,10.78,13,13h8c2.56.93,3.87,5,6,6h6c.51.2,2.25,2.82,3,3,3.59.85,4.32-2,8-2,5,0,8.76,3.56,15,2,4.51-1.13,8.5-4.46,12-6,5.85-2.58,10.6-.62,17-3,2.09-.78,3.29-4.12,5-5,3.84-2,7.53.12,10-1,1.74-.79,4.33-5.31,6-6,2.31-.95,6,.51,8,0C327.22,467.72,327.64,467.75,328,464Z" fill="none" fill-rule="evenodd"/>
    <path d="M804,460c3.62-.27,8.53-2.65,9-2,11.52,6.11,23.08,15.07,35,20,7.15,2.95,16.73-1.93,19,6-6.88,4-17.4,6.54-23,12-12.61-2.41-37.69-19.14-39-32C804.2,462.82,804.23,462.32,804,460Z" fill="none" fill-rule="evenodd"/>
    <path d="M868,500c13.55,3.61,22,25,21,40-9.58,8.42-13.35,22.5-20,34-3,5.2-9.08,9.71-12,15-3.49,6.32-5.12,11.23-9,17l-4,3c-.33,3-.67,6-1,9-1.4,3-6.07,6.29-8,9-3.5,4.9-4.79,9.72-8,15-1.17,1.93-4.55,3.28-6,5-2.62,3.1-2.68,7.53-5,11-7.57,11.32-17.44,22.54-25,34-8.17,12.38-16,24.28-24,36-3.46,5-5,12.52-12,14-3.78-4-29.56-9.83-37-10-2.7-4-5.42-4.49-6-11,2.53-1.5,3.16-1.51,4-5,0-.58-1-5.66-1-10,7.9-5.85,9.06-17.09,15-25,3.85-5.13,13.22-9.23,16-15,2.46-5.12,2-10.93,5-16s9.09-9.71,12-15c2.47-4.48,2.79-8.48,6-12,1.49-1.64,4.54-2.34,6-4l8-15c1.82-2.5,6.27-3.61,8-6,4-5.56,2.89-12.7,8-17,3.35-2.43,6.85-1.42,11-3,.46-1.44,0-5.87,1-8s4.5-3.29,6-5c2.19-2.51,2.1-6.13,4-9,.37-.56,4.9-3.82,5-4l-1-4c.82-1.83,4.69-3.46,6-5,3.17-3.72,4-9.16,7-13l7-4c2.24-2.91,2-7,4-10C853.6,509.34,863,506.26,868,500Z" fill="none" fill-rule="evenodd"/>
    <path d="M903,513c11.93.3,15.54,8.44,23,13,2.07,1.27,4.91,3.44,6,4l8,1c.79.55,1.06,3.34,2,4,2.59,1.81,5.71,3.58,8,5,4.5,2.79,10.93,2.82,14,7,1.48,1.91,1.85,3.32,1,5-1.12,2.87-.17,1.84-3,3-1.61,1-12.87.61-14,0-4.91-1.58-7-6-11-8l-11-1c-1.71-.72-21.36-16.69-22-18v-6c-.77-1.62-3.85-3.2-5-5C901.06,515.78,901.91,515.35,903,513Z" fill="none" fill-rule="evenodd"/>
    <path d="M1190,726v6l-24-1c-2.43.55-8,1.68-12,1-2.56-.44-5.43,1.53-8,2-2.25.41-2.88-1.71-4-2-3.85-1-6,1.7-8,2-3.34.51-.65-2.47-4-2-3.49,4.34-17.11,0-24,1-20.94,3-68.28-3.39-83-14-6.08-4.38-11.27-25.29-13-33,2.47-1.29.68.43,2-2-4.42-3.16,1.41-6.11-1-13-2.16-6.15-5-10.9-7-17v-8h-2c-3.56-.85-9-3.41-14-6-8.25-4.29-16.46-10.13-26-13-7.14-2.15-9.14.93-16-2-2.26-1-4.5-5.34-7-6-4.38-1.16-10.76,3.81-18-1-.87-.74-1.13-1.26-2-2,3.32-14.13,14-22.65,20-34,3.2-.26,3.19-1,5,0,5.62,1.74,9.5,6.26,14,9l12,4c10.39,6.31,20.34,13.57,36,15,.91-2.32,1.86-2.9,3-5,13.52,5.1,7.89-1.17,18-1,4.53.08,9.35,4.06,15,2,5.45-2,2.7-7.24,11-8,4.33,5.83,10.56,5.1,17,9,1.65,1,4.12,4.11,6,5l6,1c1.61,1.25,1.1,4.94,3,6,.24.13,5-1.63,7-1,5.4,1.69,11.37,5.9,16,8,3.75,1.7,6.13.52,10,2,8.88,3.4,19.62,9.8,28,14,8.91,4.47,20.06,5.55,29,10,13.23,6.59,28.13,11.08,42,18,5.33,2.66,11.58,7.54,17,10,11.52,5.23,36,10.4,43,19,.87,2,3.31,6.6,4,11-4.45,3-5.22,5.8-13,6-5.41,3.75-15.17,3-22,5-9,2.7-35.22,13.26-48,9C1195.07,729,1194.4,726.72,1190,726Z" fill="none" fill-rule="evenodd"/>
  </g>
  <g id="Trim" style="isolation: isolate">
    <path d="M528,678c-.81,11.1-21.67,33.35-27,43-3.81,6.89-4.09,17.29-13,19-.89-19.29-11.22-72.79,10-77C503.71,671.05,514.76,677.75,528,678Z" fill="none" fill-rule="evenodd"/>
    <path d="M1160,732v-4h2c1.13.07,3.43,2.15,6,3l22,1v-6c6.85,1.23,18.54,7.7,30,4,2.4-.78,5.62-4.11,8-5l10-1c11.09-3,22.62-7.44,36-8,2.78-3.46,5.92-3.51,7-9-1.49-1.62-1.55-2-2-5a21.58,21.58,0,0,1,7-1c11.28,9,32,11.37,45,19l3,4c5,2.92,10.08,3,15,6l25,26c3,1.69,7.48,1.66,10,3-.91,1.08.08.08-1,1-1.18,2.07-.68,1.88-3,3-.83-3.25.49-1.53-2-3v2c-6.88,9.34-8.66,35.36-8,48-8.86,0-15.28,2.33-22,4h-20c-16.18,4-37.14,5.82-54,10h-14c-4,1-12,3-16,4h-20c-35.46,8.69-79,8-122,8-21.75,0-49.66,2.52-68-2h-14c-9.53-2.37-26-6.72-31-14-8-11.68-8.67-33-23-38-5.91-2.06-11-.27-18-2-23.92-5.9-53.15-9.36-81-10-8.37-.19-28.29-6.35-37-1-14.73,5.07-27.65,38.24-42,40a15.61,15.61,0,0,1-1-5c7.61-5.38,19.89-29.08,26-38,23.76-34.71,47.52-70.9,72-105,4.13-5.75,7-14.32,13-18,2.5-1.53,5.26-.9,7-3,7.38-8.93,4.17-21,21-21,5.37,3.47,8-1.36,13,0,2.43.66,5.58,5,8,6,3.86,1.62,6.47-.76,9,0,11.68,3.53,22.1,9.82,32,15,4.22,2.21,8.4,5.46,12,7l4-1v8c12.56,15.2.61,60.82,26,67,1.84-2.51,2.48-3.92,6-5-.24,4.41-.53,4.44,0,8,5.73.4,7.31,2.66,12,4,1.08-5.85,2.8-7.62,6-11,7.77,2.85,7.62,12.22,16,14,.43.27,24,3,24,3,3-.47,4.67-4.49,10-3C1123.8,736.53,1136.39,731.56,1160,732Z" fill="none" fill-rule="evenodd"/>
    <path d="M102,448c16.81.46,44.77,26.2,52,37,4.87,7.27-.54,17.9,11,19-.33,3.33-.67,6.67-1,10,4.14,2,7.92,5.52,8,12-6,3.17-18.82,2.12-28,2-4.58-3.11-11.24-.35-18-2-13.51-3.29-27.6-4.18-42-7a10.92,10.92,0,0,0-2-3C86.5,493.1,100.74,473.06,102,448Z" fill="none" fill-rule="evenodd"/>
    <path d="M52,612c25.45.42,54.79,4.72,74,2,10.34-1.47,20.79,1.28,34-2,10.22-2.54,17.78.55,28-2,17.31-4.31,37.25-7,54-13,3.38-1.21,9-5.08,12-6,4.41-1.36,10.43,2.83,16,4l3,9c4.28,5.55,11.68.13,14,14-28,20.57-53.78,44.67-74,73-7.22,10.12-12.42,22.66-19,33-3.18,5-2.2,12.54-8,15-4.55,3-26.74.36-32-1-23-5.94-53.76-7.92-76-14-10-2.74-28.13-2.53-35-8a8.64,8.64,0,0,1-3-4c2.12-4.52-1.91-18.21,0-26,1.3-5.3,2.7-16.7,4-22V650C46.93,638.09,51.53,624.72,52,612Z" fill="none" fill-rule="evenodd"/>
    <path d="M590,694c8.42.5,16.55,6.6,24,9,10.68,3.44,22.64-1.77,27,9,.8,1.18.77,1.68,1,4-10.55,11-17.09,26.51-25,40-3.29,5.62-9.41,10.61-13,16-4,6-6.62,17.85-14,20-5.18,1.51-22-5.58-26-7-8.27-2.92-23.85-.23-28-7,7.55-8.23,13.13-21.94,19-32,2.75-4.7,8-9.45,11-14C574.47,719.29,581.92,706.57,590,694Z" fill="none" fill-rule="evenodd"/>
    <path d="M756,740c-.14,9.83-5,11.51-9,17-8.22,11.39-15.41,23.5-23,35-3,4.49-10.32,19.78-14,22-6-5.62-40.47-9.87-52-10-.63-1.75-.19-1-1-2,2.47-9.93,11.82-18.2,17-26,3.4-5.13,3.6-16.71,7-21,3.81-4.81,10.38-7.87,14-13,4.86-6.9,5.32-16.7,17-17l6,7c4.86,2.3,10.64.27,14,1C740.4,734.82,744.28,740.05,756,740Z" fill="none" fill-rule="evenodd"/>
    <path d="M784,812c.83-3.25-.49-1.53,2-3l1,3Z" fill="none" fill-rule="evenodd"/>
  </g>
  <g id="Outsole" style="isolation: isolate">
    <path d="M38,877a232.8,232.8,0,0,0,22,8c6.93,2.13,15.48,4.19,24,6s17.18,3.48,26,5l18,2c12.41,1.61,24.54,2.92,37,4,17.76,1.54,35.18,2.53,53,3,7.38.17,14.6.5,22,1,15.13,1,29.28.36,44,4,8.77,2.17,23.18-3.27,30,1a12.21,12.21,0,0,0,3,3c2,1.37,4.09,1.93,5.85,3.12A12.48,12.48,0,0,1,324,918a10.67,10.67,0,0,1,.82.79A27.81,27.81,0,0,0,329,922c-19-1.34-37.83-2.07-55-2-12.54,0-23.38,0-36-1-6.65-.54-14.66-1.6-22-2-7.54-.41-15.77-.33-24-1a205.6,205.6,0,0,1-22-3H152c-11.44-1.17-22.71-2.83-34-5-10.14-2-20-4.26-30-7l-18-3c-3.63-1.28-13.12-4.62-13-5,0-.12,1,.09,1,0s-6.64-1.42-13-5a40.69,40.69,0,0,1-7-5Z" fill="none" fill-rule="evenodd"/>
    <path d="M1377,757h5a74.43,74.43,0,0,1,13,23c4.48,12.86,4.87,23.57,3.57,32.27A63.56,63.56,0,0,1,1388,839a96.63,96.63,0,0,1-22,21c-11.23,7.72-23.62,11.84-31,14-8.55,2.51-36,10.85-54,16h-9l-1,2h-7c-.33.67-.67,1.33-1,2h-11a198.65,198.65,0,0,1-44,9l-11-2a354.59,354.59,0,0,0,37-7c7.59-1.85,14.42-4.08,22-6,10.58-2.68,30.3-6.63,46-10a184.9,184.9,0,0,0,30-10c9.47-4.24,19-9.76,28-19,8.37-8.61,12.58-17.23,14-23a43.77,43.77,0,0,0,1-15,11.39,11.39,0,0,0-3-2,11.27,11.27,0,0,0-4-1l3-8a99.19,99.19,0,0,1,1-24l0-.22Q1374.52,766.39,1377,757Z" fill="none" fill-rule="evenodd"/>
  </g>
  <g id="Sole" style="isolation: isolate">
    <path d="M934,922v7H876c-4.58-1.38-9.59-5.74-14-7H806c-3.88,1.12-6.77,5.71-10,7-4.94,2-47.86-.74-51-2-2-.82-4.37-4.24-7-5H688c-2,.68-3.55,4.23-5,5H643c-6.2-10-27.87-7.49-44-7-8.27.25-9.33,5.2-15,7-4.73,1.5-9.35-1.37-12-2-11.82-2.82-27.84,3.67-38-1-2.11-1-3.45-5.11-6-6-3.8-1.32-35.82-2.36-38-1-4,1.65-4.66,6.5-8,8H432c-8.58-10.29-30.69-13.87-50-10-1.06,2.63-1.07,5.43-2,7-4.48,2.86-17.47,1-24,1l-30-2c-10.35-5-17.83-14.87-38-11-4.94,1-6.27-.84-10-2-8-2.51-22.91-.27-30-2-13.26-3.23-32.19.88-44-2H180c-6.81-1.68-21.19-2.34-28-4H132c-26.29-6.53-56.42-10.55-80-19l-12-2c-13-5.54-22.74-13.73-32-23l-8-7V834c9.3-2.78,9.78-9.77,16-15,1.17-1,2.51-.06,4-1,4.42-2.79,15.82-18.92,18-24,4.66-10.87-3.13-17.72-5-24q-.49-7-1-14l-4-3c-3.34-6.31-2.87-21.69-3-31a81.22,81.22,0,0,0,9-7c15.56,2.42,37.43,8.61,54,13,16.93,4.49,34.84,1.72,52,6,19.32,4.82,46.73,9.25,68,2,12.47-4.25,27.71-12.73,37-21,11.39-10.14,17.72-24.63,35-29,16.07-4.07,38.58,6.84,50,10,9.24,2.56,16.76,1.44,26,4,6.6,1.83,15.13,4.93,22,7l14,2c1.7.85,3,4.14,5,5l13,1c10.54,4.46,21,9.13,34,12,2.38,3.57,7.16,7.26,9,11,.33,2.67.67,5.33,1,8,1.5,4.33,6.45,12.43,10,15,5.51,4,12.24,2.86,20,5,10.3,2.84,20.47,5.54,32,9,13.78,4.14,28.61,5,44,9,10.6,2.79,24,7.4,34,11,10.33,3.73,24,4.42,34,7,14.65,3.78,22.43-1.82,38,2,5.82,1.43,14,3.58,20,5l18,1c13.33,3.57,32.23,8,48,4,8.45-2.13,18.72,1.66,26-1,18.76-6.84,26.87-20.73,39-34,3.76-4.12,9.13-7,13-11,26.18-.33,52,.65,74,6,10.38,2.53,18.09-.46,28,2,11.16,2.77,26,6,38,7,3,4.68,8.59,10.08,11,15,5.06,10.33,4.41,21.65,14,27,26.2,14.62,72.68,11,113,11,40.88,0,82.18.21,116-8h20c14-3.44,33.76-4.5,48-8h10c7.72-1.91,18.49-4.15,26-6h11c10.77-3.51,14.6-6.82,31-7,3.1,4.53,5.84,4.92,6,13-4.35,5.79-5.23,13.7-9,20-1.74,2.91-20.09,21.26-23,23-13.47,8-29.85,8.25-46,14-25.68,9.14-56.67,13.77-84,21l-34,4c-6.16,1.93-6.51,8.56-11,11l-13,1c-1,.27-3.47,2.81-4,3-1.7.62-32.42,2.57-34,2-.52-.18-3.06-2.74-4-3-10.67-3-42.79,1.2-52,3a25,25,0,0,1-4,5c.9,2.19.86,1.44,2,3h-15c-6.17,4.7-26.06,2.07-36,2-10.58-.07-13.54-4.88-21-7Z" fill="none" fill-rule="evenodd"/>
  </g>
  <g id="Shadow_Image" data-name="Shadow Image">
    <image id="Shadow_Image-2" data-name="Shadow Image" width="1400" height="931" transform="translate(0 -1.23)" xlink:href="svg/shoe-svg1.png"/>
  </g>
</svg>
